HIERARCHY
ROOT Hips
{
	OFFSET 51.878300 -35.530014 97.262894
	CHANNELS 6 Xposition Yposition Zposition Xrotation Yrotation Zrotation
	JOINT spine
	{
		OFFSET 0.000000 -0.458069 7.965683
		CHANNELS 3 Xrotation Yrotation Zrotation
		JOINT spine1
		{
			OFFSET 0.000000 -0.000004 10.243103
			CHANNELS 3 Xrotation Yrotation Zrotation
			JOINT spine2
			{
				OFFSET 0.000000 0.000000 9.814751
				CHANNELS 3 Xrotation Yrotation Zrotation
				JOINT Neck
				{
					OFFSET 0.000000 -1.201385 25.198616
					CHANNELS 3 Xrotation Yrotation Zrotation
					JOINT Head
					{
						OFFSET 0.000000 -0.000004 7.613144
						CHANNELS 3 Xrotation Yrotation Zrotation
						End Site
						{
							OFFSET 0.000000 6.077328 18.428101
						}
					}
				}
				JOINT RightShoulder
				{
					OFFSET -4.132702 0.575447 10.599205
					CHANNELS 3 Xrotation Yrotation Zrotation
					JOINT RightArm
					{
						OFFSET 0.000000 0.000000 13.901794
						CHANNELS 3 Xrotation Yrotation Zrotation
						JOINT RightArmRoll
						{
							OFFSET 0.000000 -0.000004 7.017883
							CHANNELS 3 Xrotation Yrotation Zrotation
							JOINT RightForeArm
							{
								OFFSET 0.000000 -0.000004 20.440598
								CHANNELS 3 Xrotation Yrotation Zrotation
								JOINT RightForeArmRoll
								{
									OFFSET 0.000000 0.000000 7.875153
									CHANNELS 3 Xrotation Yrotation Zrotation
									JOINT RightHand
									{
										OFFSET 0.000000 -0.000004 15.803696
										CHANNELS 3 Xrotation Yrotation Zrotation
										End Site
										{
											OFFSET 0.000000 0.000000 0.100006
										}
									}
								}
							}
						}
					}
				}
				JOINT LeftShoulder
				{
					OFFSET 4.132702 0.575447 10.599205
					CHANNELS 3 Xrotation Yrotation Zrotation
					JOINT LeftArm
					{
						OFFSET 0.000000 0.000000 13.901794
						CHANNELS 3 Xrotation Yrotation Zrotation
						JOINT LeftArmRoll
						{
							OFFSET 0.000000 -0.000004 7.017883
							CHANNELS 3 Xrotation Yrotation Zrotation
							JOINT LeftForeArm
							{
								OFFSET 0.000000 -0.000004 20.440598
								CHANNELS 3 Xrotation Yrotation Zrotation
								JOINT LeftForeArmRoll
								{
									OFFSET 0.000000 0.000000 7.875153
									CHANNELS 3 Xrotation Yrotation Zrotation
									JOINT LeftHand
									{
										OFFSET 0.000000 -0.000004 15.803696
										CHANNELS 3 Xrotation Yrotation Zrotation
										End Site
										{
											OFFSET 0.000000 0.000000 0.100006
										}
									}
								}
							}
						}
					}
				}
			}
		}
	}
	JOINT RightUpLeg
	{
		OFFSET -7.060482 1.086102 -1.294701
		CHANNELS 3 Xrotation Yrotation Zrotation
		JOINT RightUpLegRoll
		{
			OFFSET 0.000000 -0.000004 18.530800
			CHANNELS 3 Xrotation Yrotation Zrotation
			JOINT RightLeg
			{
				OFFSET 0.000000 0.000004 -22.947601
				CHANNELS 3 Xrotation Yrotation Zrotation
				JOINT RightLegRoll
				{
					OFFSET 0.000000 -0.000004 23.022598
					CHANNELS 3 Xrotation Yrotation Zrotation
					JOINT RightFoot
					{
						OFFSET 0.000000 -0.000004 19.162506
						CHANNELS 3 Xrotation Yrotation Zrotation
						JOINT RightToeBase
						{
							OFFSET 0.000000 0.000000 16.018799
							CHANNELS 3 Xrotation Yrotation Zrotation
							End Site
							{
								OFFSET 0.006790 0.894203 7.757828
							}
						}
					}
				}
			}
		}
	}
	JOINT LeftUpLeg
	{
		OFFSET 7.060482 1.086102 -1.294701
		CHANNELS 3 Xrotation Yrotation Zrotation
		JOINT LeftUpLegRoll
		{
			OFFSET 0.000000 -0.000004 18.530899
			CHANNELS 3 Xrotation Yrotation Zrotation
			JOINT LeftLeg
			{
				OFFSET 0.000000 -0.000004 22.947502
				CHANNELS 3 Xrotation Yrotation Zrotation
				JOINT LeftLegRoll
				{
					OFFSET 0.000000 -0.000004 23.235504
					CHANNELS 3 Xrotation Yrotation Zrotation
					JOINT LeftFoot
					{
						OFFSET 0.000000 -0.000004 18.949600
						CHANNELS 3 Xrotation Yrotation Zrotation
						JOINT LeftToeBase
						{
							OFFSET 0.000000 0.000000 16.018799
							CHANNELS 3 Xrotation Yrotation Zrotation
							End Site
							{
								OFFSET -0.030430 0.894203 7.757828
							}
						}
					}
				}
			}
		}
	}
}
MOTION
Frames: 9
Frame Time: 0.041667
51.661598 3.044102 54.207088 -13.385431 0.455617 2.644159 4.503580 -0.312986 -0.597390 13.006845 -0.684216 -1.174614 14.651816 -0.698084 -1.166413 -5.991470 10.101466 4.469358 33.751977 -7.433398 5.565709 -6.575796 -53.382720 -7.292694 -51.149367 -137.776868 -68.250399 0.000004 -0.000003 0.000002 62.099185 -7.874810 1.233331 0.000007 0.000007 -2.999989 -5.000378 -7.999079 0.000097 -24.341964 58.901058 28.787420 108.579948 50.341872 -57.233157 -0.000002 0.000000 -0.000001 81.564705 8.739055 -0.379092 -0.000001 -0.000005 3.000020 -4.999773 7.999034 -0.000045 -78.284985 -171.307811 -0.671466 179.999991 -0.000004 -1.422996 92.014820 4.391807 1.126733 -0.000004 0.000001 1.744400 65.670397 7.111433 1.793754 25.456971 -7.342699 0.000005 -79.419958 172.650844 0.488197 -0.000005 -0.000004 -1.390820 -87.273671 -3.548461 -0.652734 -0.000005 0.000002 -1.887668 63.725057 -7.270866 -1.601554 25.456871 7.346166 0.000009 
51.661606 3.045876 54.208694 -13.383930 0.455179 2.645063 4.503907 -0.312978 -0.598001 13.007446 -0.683935 -1.175041 14.652516 -0.697820 -1.166843 -5.978108 10.116631 4.473423 33.753323 -7.468548 5.582716 -6.576618 -53.370863 -7.292642 -51.134993 -137.787141 -68.221555 0.000003 -0.000004 0.000002 62.095312 -7.871158 1.231062 0.000008 0.000005 -2.999990 -5.000380 -7.999083 0.000096 -24.334004 58.914801 28.777476 108.645832 50.372386 -57.388950 0.000001 -0.000001 -0.000002 81.560334 8.725743 -0.365146 0.000001 -0.000008 3.000020 -4.999772 7.999038 -0.000049 -78.285272 -171.308958 -0.672913 179.999991 -0.000004 -1.422997 92.016739 4.392354 1.126649 -0.000004 0.000001 1.744440 65.671019 7.111397 1.793505 25.456969 -7.342698 0.000005 -79.422949 172.652880 0.489481 -0.000004 -0.000004 -1.390880 -87.273849 -3.548346 -0.653743 -0.000005 0.000002 -1.887680 63.724531 -7.270856 -1.601588 25.456871 7.346164 0.000010 
51.651604 3.017010 54.183586 -13.382626 0.454699 2.645937 4.504258 -0.312969 -0.598643 13.008144 -0.683646 -1.175509 14.653211 -0.697548 -1.167296 -5.965145 10.132785 4.478002 33.755150 -7.505551 5.600822 -6.577339 -53.358995 -7.292485 -51.121855 -137.797086 -68.193838 0.000002 -0.000003 0.000002 62.090709 -7.867493 1.228739 0.000008 0.000006 -2.999990 -5.000377 -7.999085 0.000096 -24.325787 58.928495 28.767258 108.711388 50.402199 -57.543087 -0.000001 0.000001 -0.000003 81.555143 8.713025 -0.351790 -0.000000 -0.000008 3.000020 -4.999770 7.999035 -0.000047 -78.285470 -171.309723 -0.675298 179.999991 -0.000004 -1.422997 92.018665 4.392684 1.126573 -0.000003 0.000001 1.744500 65.671627 7.111322 1.793250 25.456967 -7.342700 0.000005 -79.425743 172.655038 0.490064 -0.000005 -0.000004 -1.390960 -87.274190 -3.548096 -0.654857 -0.000005 0.000002 -1.887690 63.724108 -7.270822 -1.601707 25.456871 7.346163 0.000010 
51.655903 3.028584 54.193691 -13.381427 0.454189 2.646776 4.504625 -0.312957 -0.599305 13.008945 -0.683349 -1.175988 14.653913 -0.697270 -1.167779 -5.952431 10.149630 4.482951 33.757524 -7.543825 5.619714 -6.578007 -53.347138 -7.292264 -51.108219 -137.807823 -68.164789 0.000003 -0.000003 0.000000 62.085402 -7.863958 1.226636 0.000008 0.000009 -2.999988 -5.000380 -7.999085 0.000094 -24.317454 58.942320 28.756917 108.777968 50.431262 -57.697620 -0.000002 -0.000001 0.000001 81.549289 8.700768 -0.338753 0.000000 -0.000006 3.000021 -4.999773 7.999037 -0.000045 -78.285354 -171.310556 -0.676786 179.999991 -0.000004 -1.422996 92.020584 4.393014 1.127490 -0.000004 0.000002 1.744570 65.672139 7.111274 1.793005 25.456967 -7.342701 0.000004 -79.428441 172.657156 0.490739 -0.000004 -0.000004 -1.391050 -87.274484 -3.547942 -0.655969 -0.000004 0.000002 -1.887699 63.723684 -7.270788 -1.601828 25.456870 7.346164 0.000009 
51.661304 3.044338 54.202679 -13.380326 0.453662 2.647612 4.505017 -0.312944 -0.599980 13.009643 -0.683051 -1.176488 14.654716 -0.696988 -1.168273 -5.939879 10.166971 4.488112 33.760071 -7.582845 5.639047 -6.578609 -53.335175 -7.291965 -51.094781 -137.818669 -68.135686 0.000003 -0.000005 -0.000001 62.079787 -7.860399 1.224313 0.000006 0.000005 -2.999990 -5.000380 -7.999080 0.000095 -24.309224 58.956000 28.746627 108.844611 50.460188 -57.851579 -0.000001 -0.000002 0.000003 81.543054 8.688824 -0.326164 0.000001 -0.000006 3.000017 -4.999772 7.999033 -0.000049 -78.285217 -171.311089 -0.679121 179.999991 -0.000005 -1.422997 92.022510 4.393351 1.127412 -0.000003 0.000001 1.744660 65.672535 7.111206 1.792767 25.456967 -7.342702 0.000004 -79.431063 172.659191 0.491501 -0.000005 -0.000004 -1.391160 -87.274839 -3.547719 -0.657087 -0.000004 0.000002 -1.887717 63.723268 -7.270753 -1.602048 25.456875 7.346160 0.000009 
51.660202 3.036835 54.197884 -13.379226 0.453130 2.648436 4.505397 -0.312930 -0.600658 13.010441 -0.682750 -1.176987 14.655511 -0.696705 -1.168766 -5.927360 10.184411 4.493310 33.762660 -7.622049 5.658491 -6.579211 -53.323314 -7.291660 -51.081489 -137.829597 -68.106787 0.000003 -0.000003 0.000003 62.074166 -7.856839 1.222093 0.000008 0.000008 -2.999988 -5.000376 -7.999086 0.000093 -24.300881 58.969832 28.736248 108.912523 50.488717 -58.006939 -0.000002 0.000000 -0.000001 81.536749 8.676931 -0.313568 -0.000001 -0.000005 3.000020 -4.999770 7.999035 -0.000046 -78.284848 -171.311758 -0.680470 179.999991 -0.000004 -1.422997 92.024464 4.393552 1.127332 -0.000003 0.000001 1.744740 65.673020 7.111076 1.792506 25.456969 -7.342701 0.000004 -79.433597 172.661185 0.492352 -0.000005 -0.000004 -1.391270 -87.275208 -3.547493 -0.658204 -0.000005 0.000002 -1.887730 63.722926 -7.270698 -1.602158 25.456871 7.346165 0.000010 
51.665905 3.045418 54.208694 -13.378022 0.452608 2.649271 4.505778 -0.312918 -0.601331 13.011242 -0.682452 -1.177476 14.656211 -0.696425 -1.169260 -5.914768 10.201651 4.498398 33.765126 -7.660887 5.677711 -6.579847 -53.311467 -7.291392 -51.067975 -137.840389 -68.077732 0.000005 -0.000003 -0.000000 62.068647 -7.853253 1.219787 0.000008 0.000006 -2.999989 -5.000378 -7.999086 0.000093 -24.292456 58.983553 28.725798 108.979589 50.517797 -58.161055 -0.000001 -0.000001 -0.000001 81.530698 8.664825 -0.300807 -0.000001 -0.000008 3.000021 -4.999771 7.999040 -0.000045 -78.284568 -171.312482 -0.681818 179.999991 -0.000004 -1.422996 92.026383 4.393881 1.128249 -0.000004 0.000002 1.744820 65.673416 7.111010 1.792266 25.456967 -7.342698 0.000003 -79.436213 172.663221 0.493101 -0.000004 -0.000003 -1.391370 -87.275570 -3.547268 -0.659221 -0.000005 0.000002 -1.887750 63.722509 -7.270666 -1.602379 25.456873 7.346163 0.000009 
51.667709 3.046486 54.208088 -13.376824 0.452108 2.650123 4.506146 -0.312906 -0.601988 13.011940 -0.682158 -1.177956 14.657012 -0.696148 -1.169733 -5.901981 10.218303 4.503211 33.767431 -7.698794 5.696396 -6.580520 -53.299511 -7.291164 -51.054356 -137.851126 -68.048813 0.000004 -0.000004 0.000000 62.063545 -7.849661 1.217511 0.000008 0.000008 -2.999989 -5.000376 -7.999084 0.000096 -24.284220 58.997248 28.715509 109.047160 50.547351 -58.316060 -0.000000 0.000000 -0.000001 81.524994 8.652505 -0.287794 0.000000 -0.000008 3.000020 -4.999774 7.999034 -0.000046 -78.284589 -171.313111 -0.684190 179.999991 -0.000004 -1.422997 92.028309 4.394204 1.128184 -0.000003 0.000002 1.744890 65.673929 7.110961 1.792022 25.456967 -7.342699 0.000005 -79.438911 172.665338 0.493775 -0.000005 -0.000006 -1.391460 -87.275925 -3.547029 -0.660336 -0.000004 0.000002 -1.887758 63.722079 -7.270633 -1.602500 25.456875 7.346165 0.000009 
51.662903 3.045952 54.211491 -13.375421 0.451640 2.651000 4.506496 -0.312898 -0.602620 13.012640 -0.681870 -1.178403 14.657712 -0.695879 -1.170184 -5.888884 10.234158 4.507594 33.769312 -7.735228 5.714199 -6.581265 -53.287637 -7.291038 -51.041044 -137.860989 -68.020987 0.000002 -0.000003 0.000001 62.059160 -7.846036 1.215299 0.000007 0.000004 -2.999990 -5.000376 -7.999085 0.000094 -24.276033 59.011031 28.705335 109.116527 50.577250 -58.473844 -0.000000 -0.000002 0.000002 81.520111 8.639553 -0.274286 -0.000001 -0.000005 3.000019 -4.999773 7.999033 -0.000046 -78.284705 -171.314135 -0.685600 179.999991 -0.000005 -1.422997 92.030269 4.394620 1.127104 -0.000003 0.000002 1.744940 65.674530 7.110887 1.791767 25.456972 -7.342699 0.000006 -79.441780 172.667551 0.494268 -0.000004 -0.000004 -1.391530 -87.276178 -3.546850 -0.661449 -0.000005 0.000002 -1.887769 63.721546 -7.270578 -1.602622 25.456871 7.346163 0.000008 
